<svg width="280" height="69" viewBox="0 0 280 69" fill="none" xmlns="http://www.w3.org/2000/svg">
<path d="M75.5946 36.5491C73.2287 37.6912 70.9444 38.6702 68.8232 39.4861C66.7021 40.3019 64.4993 41.0361 62.2966 41.6888C60.0939 42.3415 57.4832 42.9941 54.5462 43.7284C51.6908 44.381 48.9986 44.9521 46.3064 45.4416C43.6142 46.0127 41.0035 46.4206 38.3113 46.8285C35.619 47.2364 32.9268 47.4812 30.2346 47.7259C27.5423 47.9707 24.6869 48.0523 21.75 48.0523C20.4446 48.0523 19.0577 48.0523 17.5077 47.9707C15.9576 47.9707 14.4075 47.8891 12.8574 47.6443C11.3074 47.4812 9.92047 47.1549 8.53356 46.7469C7.14665 46.339 6.00449 45.7679 5.10708 44.9521C4.20967 44.1363 3.55701 43.0757 3.23068 41.7704C2.82276 40.5466 2.90434 38.9966 3.39384 37.1202C3.96492 35.0806 4.94391 33.1226 6.16765 31.3278C7.3914 29.6146 8.85989 27.8197 10.5731 26.0249C16.5287 20.8036 22.8921 16.1534 29.7451 12.0743C36.5165 8.0767 43.5326 4.97655 50.7934 2.77381C51.6093 2.52907 52.0172 2.20274 52.0172 1.79482C51.9356 1.38691 51.5277 1.14216 50.7934 1.06058C47.5301 0.57108 44.3484 0.244748 41.1667 0.163165C37.9849 0.0815826 34.8032 0 31.6215 0C28.4398 0.0815828 25.1764 0.163165 21.9947 0.244748C18.7314 0.326331 15.4681 0.407913 12.2048 0.407913C11.8785 0.407913 11.7153 0.489497 11.6337 0.652663C11.5521 0.815829 11.6337 0.978993 11.7153 1.14216C11.7969 1.38691 11.8784 1.55007 12.1232 1.71324C12.3679 1.8764 12.6127 1.95799 12.939 1.95799C18.5682 1.95799 24.1159 1.8764 29.4187 1.79482C34.7216 1.71324 40.1061 1.8764 45.4906 2.12115C42.2273 3.34489 39.1271 4.7318 36.1901 6.36346C33.1716 7.99511 30.3977 9.54518 27.7055 11.0953C23.5448 13.5427 19.3025 16.235 15.1418 19.2535C10.981 22.2721 7.22823 25.9433 3.88334 30.104C2.98593 31.3278 2.1701 32.7147 1.43586 34.2648C0.701612 35.8964 0.212115 37.5281 0.0489496 39.1597C-0.114216 40.873 0.130533 42.423 0.783195 43.9731C1.35427 45.5232 2.57801 46.9101 4.45442 47.9707C5.35183 48.5418 6.33082 49.0313 7.55456 49.4392C8.69672 49.8471 9.92046 50.0918 11.1442 50.3366C12.3679 50.5813 13.5917 50.6629 14.8154 50.7445C16.0392 50.8261 17.0997 50.8261 18.1603 50.8261C21.75 50.9077 25.3396 50.7445 28.9293 50.3366C32.4373 49.9287 35.5375 49.5207 38.2297 49.0313C42.2273 48.297 45.8169 47.6443 48.9986 46.9917C52.0988 46.4206 54.9542 45.7679 57.5648 45.1153C60.0939 44.5442 62.4598 43.81 64.6625 43.0757C66.8652 42.3415 68.9864 41.5256 71.026 40.6282C73.0655 39.7308 75.1867 38.7518 77.3894 37.5281C79.5922 36.3859 81.9581 35.0806 84.4871 33.6121C84.8135 33.3674 84.895 33.041 84.7319 32.6331C84.4871 32.2252 84.2424 32.2252 83.9976 32.47C80.7343 34.1016 77.9605 35.4885 75.5946 36.5491Z" fill="white"/>
<path d="M130.254 32.2252C128.378 32.47 126.665 32.7963 125.033 33.041C123.32 33.3674 121.688 33.6937 120.138 34.02C118.588 34.4279 117.038 34.8359 115.488 35.3254C113.938 35.8149 112.388 36.3859 110.756 37.0386C110.022 35.6517 109.043 34.3464 107.737 33.2042C106.432 32.062 104.882 31.491 103.169 31.491C101.292 31.491 99.6607 31.8989 98.1106 32.7147C96.5606 33.5305 95.1737 34.5095 93.7868 35.6517C92.3998 36.7938 91.0129 37.936 89.626 39.0782C88.2391 40.3019 86.8522 41.1993 85.3021 41.9336C85.3021 40.2203 85.5469 38.5071 86.0364 36.7938C86.4443 35.1622 86.7706 33.7753 87.0154 32.7147C87.097 32.3068 87.0154 31.9805 86.689 31.7357C86.2811 31.5726 85.9548 31.491 85.7101 31.491C85.3021 31.491 84.9758 31.8989 84.6495 32.7147C84.3232 33.6121 84.0784 34.5911 83.8337 35.7333C83.5889 36.8754 83.3442 38.0176 83.2626 39.1597C83.0994 40.3835 83.0178 41.2809 83.0178 41.9336C83.0178 42.831 83.2626 43.4836 83.7521 43.7284C83.9968 43.8915 84.2416 43.9731 84.4863 44.0547C86.118 44.0547 87.668 43.4836 89.1365 42.4231C90.605 41.3625 92.0735 40.2203 93.542 38.915C95.0105 37.6097 96.479 36.3859 98.0291 35.3254C99.4975 34.2648 101.048 33.7753 102.761 33.7753C103.985 33.7753 105.127 34.1016 106.106 34.7543C107.085 35.4885 107.901 36.5491 108.553 37.936C107.901 38.1808 107.166 38.5071 106.351 38.915C105.535 39.3229 104.719 39.6492 103.903 40.0572C103.087 40.4651 102.271 40.873 101.537 41.2809C100.721 41.6888 99.987 42.0151 99.416 42.3415C97.8659 43.1573 96.1526 44.1363 94.3578 45.36C92.563 46.5838 90.9313 47.8891 89.4629 49.3576C87.9128 50.8261 86.6891 52.4577 85.7101 54.2526C84.7311 56.0474 84.2416 57.9238 84.2416 59.9634C84.2416 62.9003 85.0574 65.0215 86.7706 66.2452C88.4839 67.469 90.5234 68.1216 93.0525 68.1216C96.479 68.1216 99.416 67.3874 101.863 65.8373C104.311 64.3688 106.35 62.4924 107.901 60.2081C109.451 57.9238 110.593 55.3947 111.327 52.7025C112.061 50.0103 112.388 47.3996 112.388 44.8705C112.388 42.7494 112.143 40.7914 111.653 38.9966C114.427 37.7728 117.364 36.7938 120.383 36.0596C123.401 35.3254 126.665 34.5095 130.091 33.6937C130.336 33.6121 130.581 33.3674 130.744 33.1226C130.825 32.8779 130.907 32.7147 130.907 32.5515C130.907 32.3068 130.744 32.2252 130.499 32.2252H130.254ZM95.0105 65.5926C94.1131 65.5926 93.2973 65.511 92.3998 65.2662C91.5024 65.0215 90.7682 64.6952 90.0339 64.2057C89.2997 63.7978 88.647 63.1451 88.2391 62.4108C87.7496 61.6766 87.5049 60.8608 87.5049 59.8002C87.5049 58.9028 87.668 58.0054 87.9944 57.108C88.3207 56.2105 88.7286 55.3131 89.2181 54.4157C89.7076 53.5999 90.2787 52.8657 90.8498 52.1314C91.4209 51.3972 91.9103 50.8261 92.3998 50.3366C94.6842 48.1339 97.2132 46.0943 100.069 44.3811C102.924 42.6678 106.106 41.1993 109.614 39.8124C109.859 40.7914 110.103 41.7704 110.266 42.831C110.348 43.8916 110.43 45.0337 110.43 46.0943C110.43 47.8075 110.266 49.4392 109.94 51.0708C109.532 52.7841 109.043 54.3341 108.308 55.8842C107.574 57.4343 106.677 58.9028 105.535 60.2081C104.393 61.5134 103.087 62.6556 101.537 63.6346C99.5791 64.9399 97.3764 65.5926 95.0105 65.5926Z" fill="white"/>
<path d="M152.036 11.9111C151.628 13.1348 150.812 14.5217 149.67 16.235C148.528 17.9482 147.059 19.8246 145.346 21.8642C143.551 23.9037 141.593 25.7801 139.391 27.6566C138.901 28.0645 138.983 28.3092 139.635 28.3908C140.288 28.4724 141.104 28.2276 142.001 27.575C143.715 26.3512 145.346 24.9643 146.896 23.4142C148.446 21.9458 149.752 20.4773 150.975 19.0088C152.118 17.5403 153.097 16.1534 153.831 14.8481C154.565 13.6243 154.973 12.5637 155.218 11.8295C155.462 10.7689 155.381 9.78992 154.973 8.89251C154.483 7.9951 153.586 7.5056 152.281 7.42402C150.894 7.34244 149.588 7.50561 148.365 7.91352C147.141 8.32143 145.917 8.89251 144.857 9.46359C143.796 10.1163 142.817 10.8505 141.92 11.5847C141.022 12.319 140.37 12.9716 139.799 13.5427C138.167 15.0928 136.698 16.9692 135.475 19.0088C134.169 21.1299 133.19 23.2511 132.456 25.3722C132.13 26.2696 131.885 27.2486 131.722 28.3092C131.477 29.3698 131.396 30.512 131.396 31.5725C131.396 32.7147 131.559 33.8568 131.885 34.999C132.13 36.2227 132.619 37.2833 133.353 38.3439C134.577 40.1387 136.372 41.3625 138.656 42.0967C140.859 42.8309 143.225 43.1573 145.591 43.2389C146.896 43.2389 148.202 43.1573 149.588 42.9941C150.894 42.9125 152.281 42.6678 153.749 42.2599C155.218 41.9335 156.768 41.444 158.481 40.873C160.194 40.3019 162.071 39.4861 164.11 38.5886C165.742 37.8544 167.292 36.8754 168.76 35.8148C170.147 34.7543 171.289 33.7753 172.024 32.8779C172.268 32.6331 172.35 32.3884 172.268 32.2252C172.187 32.1436 172.105 32.062 171.861 32.062C171.616 32.062 171.371 32.062 171.126 32.1436C170.882 32.2252 170.637 32.3884 170.474 32.5515C168.924 33.6937 167.292 34.7543 165.416 35.8148C163.539 36.8754 161.5 37.7728 159.378 38.5071C157.257 39.2413 155.055 39.894 152.77 40.3019C150.404 40.7098 148.038 40.9545 145.591 40.873C144.53 40.873 143.307 40.7914 141.92 40.5466C140.533 40.3835 139.309 39.9756 138.085 39.4045C136.862 38.8334 135.801 37.936 134.904 36.7938C134.006 35.6517 133.598 34.1016 133.517 32.1436C133.598 29.2066 134.251 26.4328 135.393 23.8222C136.454 21.2931 138.33 18.5193 140.859 15.5823C141.512 14.8481 142.328 14.1138 143.388 13.298C144.449 12.4822 145.509 11.7479 146.57 11.0952C147.63 10.5242 148.691 10.0347 149.752 9.70834C150.731 9.46359 151.546 9.46359 152.118 9.78992C152.525 10.0347 152.444 10.6873 152.036 11.9111Z" fill="white"/>
<path d="M173.411 28.2276C172.676 29.0435 172.269 30.2672 172.269 31.8173C172.269 32.8779 172.432 33.8569 172.758 34.7543C173.084 35.6517 173.492 36.6307 174.063 37.5281C174.553 38.5071 175.124 39.5676 175.777 40.7098C176.348 41.852 177 43.1573 177.571 44.7074C177.571 44.7889 177.571 44.7889 177.653 44.8705V45.0337C177.653 45.36 177.408 45.5232 176.837 45.5232C176.103 45.5232 175.205 45.2784 174.145 44.7074C173.084 44.2179 172.187 43.7284 171.371 43.3205C171.29 43.2389 171.208 43.2389 171.045 43.2389C170.637 43.2389 170.229 43.402 169.658 43.81C169.087 44.2179 168.842 44.6258 168.842 44.9521C168.842 45.1153 168.924 45.1969 169.005 45.2784C170.311 46.1759 171.697 46.9101 173.166 47.318C174.634 47.8075 176.021 48.0523 177.245 48.0523C178.142 48.0523 179.121 47.8891 180.019 47.4812C180.916 47.1548 181.406 46.5022 181.406 45.4416C181.406 44.9521 181.243 44.2995 180.916 43.5652C180.182 42.1783 179.366 40.873 178.632 39.5676C177.898 38.3439 177.163 37.1202 176.592 35.978C176.021 34.9174 175.532 33.8569 175.205 32.8779C174.798 31.8989 174.634 31.0015 174.634 30.1856C174.634 29.6145 174.798 29.2066 175.042 28.9619C175.287 28.7171 175.532 28.554 175.777 28.3908C176.021 28.3092 176.348 28.1461 176.592 28.0645C176.837 27.9829 176.919 27.8197 176.919 27.575C176.919 27.2486 176.674 27.0855 176.266 27.0855C175.124 27.0855 174.145 27.4934 173.411 28.2276Z" fill="white"/>
<path d="M237.207 18.3561C229.456 19.2535 221.543 20.0694 213.629 20.8852C210.611 21.1299 207.837 21.3747 205.145 21.6194C202.452 21.8642 199.515 22.1905 196.334 22.4353C196.742 21.2115 197.068 20.2325 197.476 19.4167C197.802 18.6825 198.047 17.8666 198.128 17.1324C198.21 16.7245 198.128 16.4797 197.884 16.3981C197.639 16.3166 197.313 16.3981 196.986 16.4797C196.66 16.5613 196.334 16.8061 196.007 17.0508C195.681 17.2956 195.518 17.6219 195.436 17.9482C195.191 18.5193 194.947 19.2535 194.702 19.9878C194.457 20.722 194.212 21.6194 193.968 22.5169C191.928 22.68 190.133 22.8432 188.42 23.0063C186.707 23.1695 185.157 23.2511 183.607 23.3327C182.057 23.4143 180.507 23.4958 178.956 23.4958C177.406 23.5774 175.856 23.5774 174.143 23.4958C173.409 23.4958 173.001 23.659 172.919 23.9853C172.838 24.3117 173.246 24.4748 174.143 24.5564C175.775 24.7196 177.325 24.8012 178.712 24.8828C180.099 24.9643 181.486 24.9643 182.954 24.8828C184.423 24.8828 185.973 24.8012 187.686 24.7196C189.399 24.638 191.275 24.4748 193.478 24.3117C193.315 24.8828 193.152 25.4538 192.907 26.0249C192.662 26.596 192.499 27.2487 192.254 27.9013C192.01 28.6356 191.765 29.3698 191.52 30.2672C191.275 31.1646 190.949 32.1436 190.623 33.3674C190.296 34.3464 190.052 35.4069 189.807 36.6307C189.562 37.8544 189.399 38.9966 189.318 40.2203C189.236 41.4441 189.399 42.5046 189.725 43.5652C189.97 44.6258 190.541 45.5232 191.357 46.1759C192.254 46.8285 193.397 47.0733 194.784 46.9101C196.089 46.7469 197.394 46.339 198.781 45.7679C200.086 45.1969 201.31 44.4626 202.534 43.6468C203.758 42.9126 204.655 42.2599 205.308 41.6888C205.96 41.2809 206.695 40.7098 207.592 39.9756C208.408 39.2413 209.224 38.5071 210.04 37.6913C210.855 36.957 211.671 36.1412 212.405 35.4069C213.14 34.6727 213.711 34.02 214.282 33.4489C214.527 33.2042 214.69 32.8779 214.69 32.47C214.608 32.062 214.363 32.062 213.792 32.3068C211.916 33.9384 209.795 35.6517 207.51 37.3649C205.226 39.0782 203.023 40.6282 200.821 42.0151C200.413 42.2599 199.842 42.5862 199.271 42.831C198.618 43.1573 197.965 43.402 197.394 43.6468C196.742 43.8915 196.089 43.9731 195.518 44.0547C194.947 44.1363 194.376 44.1363 193.968 44.0547C193.07 43.81 192.418 43.2389 192.173 42.3415C191.847 41.5256 191.765 40.5466 191.847 39.4861C191.928 38.4255 192.091 37.2833 192.418 36.0596C192.662 34.9174 192.907 33.9384 193.152 33.041C193.478 31.8173 193.805 30.7567 194.131 29.8593C194.376 28.9619 194.62 28.2276 194.865 27.4934C195.11 26.8407 195.273 26.2697 195.518 25.6986C195.681 25.1275 195.844 24.638 196.007 24.0669C199.026 23.8222 201.8 23.4958 204.329 23.2511C206.858 23.0063 209.55 22.7616 212.569 22.5169C220.482 21.701 228.477 20.8852 236.554 20.151C244.549 19.4167 252.626 18.764 260.784 18.193C261.029 18.193 261.192 18.0298 261.192 17.6219C261.192 17.214 261.029 17.0508 260.784 17.0508C252.871 17.0508 244.957 17.4587 237.207 18.3561Z" fill="white"/>
<path d="M233.454 29.8593C231.251 29.6961 229.13 30.0225 227.09 30.8383C225.051 31.7357 223.174 33.041 221.461 34.8359C219.748 36.7123 218.28 38.915 217.056 41.5256V39.3229C217.056 38.5071 217.056 37.6913 217.137 36.8754V33.041C217.137 32.5515 217.056 32.2252 216.811 32.062C216.566 31.8989 216.24 31.8173 215.995 31.8173C215.669 31.8989 215.424 31.9805 215.179 32.1436C214.935 32.3068 214.853 32.47 214.853 32.7147C214.935 33.6121 214.935 34.5095 215.016 35.2438C215.098 35.978 215.098 36.7938 215.179 37.6913V44.4626C215.179 45.1969 215.343 45.6048 215.669 45.6864C215.914 45.7679 216.322 45.6048 216.729 45.1969C217.464 44.0547 218.28 42.831 219.014 41.6072C219.748 40.3835 220.564 39.1597 221.461 38.0176C222.359 36.8754 223.419 35.8148 224.643 34.8359C225.785 33.9384 227.172 33.1226 228.804 32.5515C229.456 32.3068 230.109 32.1436 230.762 32.062C231.333 31.9805 232.067 31.8989 232.801 31.9805C233.536 32.062 234.433 32.1436 235.33 32.3884C236.228 32.6331 237.37 33.041 238.675 33.5305C239.002 33.6121 239.328 33.6937 239.654 33.6121C239.981 33.5305 240.225 33.4489 240.47 33.2858C240.633 33.1226 240.715 32.9594 240.715 32.7147C240.715 32.47 240.552 32.3068 240.225 32.1436C237.941 30.8383 235.657 30.1041 233.454 29.8593Z" fill="white"/>
<path d="M254.42 28.2276C253.196 27.9013 251.564 27.9013 249.688 28.3092C248.056 28.6356 246.506 29.2066 245.119 30.0225C243.651 30.9199 242.346 31.8989 241.285 32.9595C240.224 34.1016 239.327 35.2438 238.674 36.3859C237.94 37.6097 237.614 38.6702 237.532 39.6492C237.451 40.2203 237.695 40.7098 238.266 41.0361C238.837 41.4441 239.49 41.6888 240.224 41.7704C241.122 41.852 242.101 41.852 243.243 41.6072C244.385 41.4441 245.527 41.1993 246.588 40.873C247.648 40.6282 248.627 40.2203 249.525 39.8124C250.341 39.4045 250.912 39.0782 251.238 38.7518C251.238 38.9966 251.32 39.4045 251.401 39.8124C251.483 40.2203 251.728 40.6282 251.972 40.873C252.38 41.3625 252.87 41.4441 253.278 41.1177C253.686 40.7914 253.93 40.4651 253.93 40.2203C253.93 39.6492 253.93 38.915 253.849 38.1807C253.767 37.4465 253.604 36.7123 253.522 35.978C253.441 35.6517 253.114 35.4885 252.543 35.4885C251.972 35.4885 251.401 35.8964 250.749 36.6307C250.422 37.0386 249.851 37.4465 249.117 37.8544C248.301 38.2623 247.404 38.6702 246.425 38.9966C245.364 39.4045 244.385 39.6492 243.325 39.7308C242.264 39.894 241.367 39.8124 240.632 39.5677C240.061 39.4045 239.98 38.915 240.306 38.0992C240.551 37.3649 241.122 36.4675 242.019 35.4885C242.917 34.5911 243.977 33.6937 245.201 32.7963C246.425 31.9805 247.812 31.4094 249.198 31.083C250.667 30.7567 251.972 30.6751 253.033 30.9199C254.093 31.1646 254.991 31.6541 255.725 32.2252C255.888 32.3884 256.133 32.3884 256.459 32.3068C256.704 32.2252 257.03 32.1436 257.275 31.9805C257.52 31.8173 257.683 31.5725 257.765 31.3278C257.846 31.083 257.846 30.9199 257.765 30.6751C256.786 29.3698 255.644 28.554 254.42 28.2276Z" fill="white"/>
<path d="M279.191 20.3063C279.506 20.2733 279.714 20.4009 279.816 20.6882C279.918 20.9763 279.874 21.1846 279.685 21.3148C277.826 22.286 275.865 23.0003 273.8 23.4559C271.735 23.9124 269.719 24.0626 267.75 23.9046C267.359 23.8855 267.111 23.7406 267.005 23.4663C266.898 23.193 266.952 22.9482 267.165 22.7338C268.035 21.6976 268.915 20.5806 269.801 19.3811C270.686 18.1817 271.51 16.9345 272.271 15.6387C273.031 14.343 273.695 13.0133 274.263 11.6472C274.829 10.282 275.242 8.9203 275.503 7.55943C275.721 6.4624 275.742 5.59884 275.568 4.97048C275.393 4.34299 275.119 3.90643 274.746 3.66429C274.372 3.42214 273.927 3.35011 273.411 3.44905C272.896 3.54886 272.401 3.79013 271.927 4.17548C271.729 4.33344 271.543 4.42631 271.368 4.45321C271.193 4.48012 271.035 4.47317 270.893 4.43325C270.752 4.39419 270.651 4.31955 270.59 4.21106C270.529 4.10258 270.525 4.00971 270.577 3.93334C270.845 3.52108 271.275 3.13053 271.866 2.7634C272.457 2.39628 273.073 2.18799 273.711 2.13852C274.35 2.08905 274.958 2.26089 275.534 2.65145C276.11 3.042 276.517 3.78927 276.756 4.89324C276.884 5.41658 276.885 6.08834 276.761 6.90677C276.638 7.72607 276.436 8.60699 276.155 9.54953C275.875 10.4929 275.538 11.4424 275.149 12.3997C274.757 13.3579 274.347 14.218 273.919 14.9817C273.255 16.2584 272.503 17.5498 271.664 18.8526C270.824 20.157 269.946 21.4111 269.027 22.6175C270.874 22.5576 272.605 22.2817 274.223 21.7913C275.84 21.3009 277.496 20.8062 279.191 20.3063Z" fill="white"/>
<path d="M197.74 57.6469H195.226V68.553H197.073V64.5971H197.531C198.531 64.5971 199.309 64.2916 199.837 63.6649C200.364 63.0539 200.628 62.1687 200.628 61.0074C200.628 58.7622 199.67 57.6469 197.74 57.6469ZM197.073 59.4035H197.518C197.948 59.4035 198.254 59.5407 198.462 59.8158C198.67 60.0909 198.767 60.5188 198.767 61.0838C198.767 61.7104 198.656 62.1531 198.434 62.4282C198.212 62.7033 197.879 62.8404 197.42 62.8404H197.073V59.4035Z" fill="white"/>
<path d="M208.599 68.5538V62.9784C208.599 62.0463 208.391 61.3433 207.974 60.8399C207.557 60.3357 206.946 60.0762 206.141 60.0762C205.266 60.0762 204.447 60.3357 203.697 60.8547L204.322 62.2294C204.905 61.8476 205.433 61.6488 205.877 61.6488C206.488 61.6488 206.794 62.0307 206.794 62.8101V63.4054L205.794 63.4514C204.919 63.4974 204.266 63.7266 203.836 64.1544C203.405 64.5823 203.183 65.2384 203.183 66.1098C203.183 66.9187 203.336 67.561 203.655 68.0192C203.975 68.4775 204.419 68.7066 204.974 68.7066C205.405 68.7066 205.766 68.6146 206.058 68.4315C206.335 68.2483 206.613 67.9116 206.877 67.423H206.919L207.28 68.5538H208.599ZM205.044 66.1246C205.044 65.6516 205.141 65.3148 205.336 65.0709C205.53 64.8418 205.835 64.7194 206.238 64.6891L206.794 64.6587V65.3608C206.794 65.8955 206.696 66.339 206.502 66.6592C206.308 66.9803 206.044 67.1478 205.71 67.1478C205.266 67.1478 205.044 66.812 205.044 66.1246Z" fill="white"/>
<path d="M214.262 60.4268C214.026 60.6559 213.818 61.0231 213.609 61.5421H213.554L213.345 60.2437H211.86V68.5538H213.665V64.2768C213.665 63.5582 213.79 63.0088 214.012 62.6269C214.248 62.2451 214.595 62.0463 215.026 62.0463C215.234 62.0463 215.401 62.0767 215.526 62.1227L215.734 60.1977C215.526 60.1213 215.303 60.0909 215.081 60.0909C214.776 60.0909 214.498 60.1977 214.262 60.4268Z" fill="white"/>
<path d="M220.356 66.1862V61.8172H221.731V60.2437H220.356V58.4567H219.204L218.746 60.2133L217.801 60.9311V61.8172H218.537V66.1246C218.537 66.9803 218.69 67.6373 219.009 68.0643C219.329 68.4922 219.815 68.7066 220.467 68.7066C221.051 68.7066 221.495 68.599 221.787 68.3698V66.812C221.495 66.95 221.217 67.0263 220.967 67.0263C220.565 67.0263 220.356 66.7512 220.356 66.1862Z" fill="white"/>
<path d="M227.761 64.2916H228.983V66.7972C228.678 66.8736 228.372 66.9187 228.081 66.9187C227.511 66.9187 227.081 66.5984 226.789 65.9414C226.484 65.2844 226.345 64.3532 226.345 63.1312C226.345 61.9396 226.539 61.0074 226.956 60.32C227.359 59.6327 227.914 59.2812 228.622 59.2812C229.108 59.2812 229.636 59.4652 230.191 59.8158L230.775 58.1668C230.053 57.7233 229.303 57.4942 228.511 57.4942C227.234 57.4942 226.234 57.9828 225.526 58.9757C224.817 59.9685 224.456 61.3433 224.456 63.0852C224.456 64.9026 224.762 66.2929 225.387 67.2555C226.012 68.2171 226.9 68.7066 228.053 68.7066C229.011 68.7066 229.928 68.5078 230.789 68.0956V62.5046H227.761V64.2916Z" fill="white"/>
<path d="M243.313 68.5538V63.1312C243.313 62.1383 243.147 61.3893 242.799 60.8703C242.452 60.3504 241.938 60.0909 241.272 60.0909C240.425 60.0909 239.814 60.5648 239.425 61.5273H239.356C239.05 60.5648 238.439 60.0909 237.509 60.0909C237.148 60.0909 236.814 60.1829 236.509 60.3817C236.189 60.5796 235.939 60.8851 235.759 61.3129H235.648L235.426 60.2437H233.995V68.5538H235.801V64.5667C235.801 63.5738 235.884 62.8561 236.064 62.4126C236.245 61.9856 236.523 61.7712 236.912 61.7712C237.467 61.7712 237.745 62.3822 237.745 63.6042V68.5538H239.564V64.5207C239.564 63.5582 239.647 62.8561 239.828 62.4282C239.994 61.9856 240.286 61.7712 240.675 61.7712C241.23 61.7712 241.494 62.3822 241.494 63.6042V68.5538H243.313Z" fill="white"/>
<path d="M249.103 60.366C248.839 60.5492 248.603 60.8703 248.381 61.3285H248.284C248.339 60.5795 248.367 60.1525 248.381 60.0145V56.9448H246.576V68.5538H247.909L248.214 67.6061H248.325C248.561 68.0192 248.797 68.3091 249.061 68.4618C249.325 68.6302 249.617 68.7066 249.964 68.7066C250.658 68.7066 251.214 68.3247 251.603 67.5757C252.005 66.8276 252.2 65.7583 252.2 64.3836C252.2 63.0236 252.005 61.9699 251.603 61.2218C251.214 60.4728 250.672 60.0909 249.992 60.0909C249.658 60.0909 249.353 60.1829 249.103 60.366ZM250.353 64.3532C250.353 66.1098 250.033 66.9951 249.381 66.9951C249.02 66.9951 248.77 66.7972 248.617 66.3997C248.464 66.0178 248.381 65.3304 248.381 64.3679V64.1692C248.395 63.2839 248.464 62.6573 248.617 62.3058C248.77 61.9543 249.02 61.7712 249.367 61.7712C250.019 61.7712 250.353 62.6269 250.353 64.3532Z" fill="white"/>
<path d="M255.38 68.5538H258.365C259.198 68.5538 259.865 68.2787 260.337 67.7137C260.823 67.1478 261.059 66.3841 261.059 65.3912C261.059 64.6891 260.934 64.1241 260.684 63.6962C260.448 63.2839 260.032 62.9932 259.476 62.8404V62.7641C259.907 62.6729 260.24 62.4126 260.49 61.9856C260.74 61.5724 260.865 61.0378 260.865 60.412C260.865 59.4495 260.629 58.7465 260.157 58.3039C259.684 57.8613 258.935 57.6469 257.907 57.6469H255.38V68.5538ZM257.115 59.4035H257.893C258.282 59.4035 258.574 59.4955 258.754 59.6943C258.935 59.8922 259.018 60.2133 259.018 60.6716C259.018 61.1142 258.948 61.4657 258.782 61.6948C258.629 61.9239 258.351 62.0307 257.963 62.0307H257.115V59.4035ZM258.018 63.7266C258.796 63.7266 259.185 64.2152 259.185 65.1933C259.185 65.7279 259.087 66.1402 258.907 66.3997C258.712 66.6592 258.435 66.7816 258.046 66.7816H257.115V63.7266H258.018Z" fill="white"/>
</svg>
